<?xml version="1.0" standalone="no"?>
<!DOCTYPE svg PUBLIC "-//W3C//DTD SVG 20010904//EN"
 "http://www.w3.org/TR/2001/REC-SVG-20010904/DTD/svg10.dtd">
<svg version="1.0" xmlns="http://www.w3.org/2000/svg"
 width="30.000000pt" height="30.000000pt" viewBox="0 0 30.000000 30.000000"
 preserveAspectRatio="xMidYMid meet">

<g transform="translate(0.000000,30.000000) scale(0.100000,-0.100000)"
fill="#000000" stroke="none">
<path d="M82 283 c-105 -52 -107 -210 -2 -263 64 -32 70 -29 70 40 0 47 -3 60
-15 60 -8 0 -15 7 -15 15 0 8 7 15 15 15 8 0 15 9 15 21 0 37 19 59 50 59 34
0 42 -25 10 -33 -11 -3 -20 -12 -20 -20 0 -8 9 -17 20 -20 11 -3 20 -12 20
-21 0 -9 -8 -16 -20 -16 -18 0 -20 -7 -20 -55 0 -30 2 -55 5 -55 23 0 68 37
85 70 26 51 25 95 -3 144 -39 69 -123 95 -195 59z"/>
</g>
</svg>
